#!OML:ASF F:\VICON\USERDATA\INSTALL\SteveWalk\SteveWalk.ASF
:FULLY-SPECIFIED
:DEGREES
302
root -0.0956058 15.859 21.4344 19.0696 -4.53612 2.7669
lowerback -16.3109 0.538565 -5.89623
upperback -5.64249 1.68992 -1.53761
thorax 2.99003 0.862153 2.02221
lowerneck -6.23733 0.661656 0.480468
upperneck 7.10858 0.75929 1.00201
head 3.38857 0.430852 0.280257
rclavicle -2.20837e-015 5.1684e-015
rhumerus -21.6735 8.5561 -85.7975
rradius 57.3574
rwrist -17.1617
rhand -17.5175 -33.6956
rfingers 7.12502
rthumb 8.73602 -63.4948
lclavicle -2.20837e-015 5.1684e-015
lhumerus -74.0351 28.8034 34.0755
lradius 8.95598
lwrist -51.2365
lhand -4.74008 -10.6305
lfingers 7.12502
lthumb 21.0431 18.2477
rfemur -10.0114 -2.00408 14.6805
rtibia 51.0078
rfoot 19.7419 19.0702
rtoes -12.7133
lfemur -50.8816 2.04747 -27.6822
ltibia 36.0931
lfoot -6.22195 -3.67001
ltoes -7.30784
303
root -0.0930532 15.8716 21.6388 18.7281 -4.5341 3.30519
lowerback -15.705 0.421771 -6.48536
upperback -5.67408 1.5837 -1.71008
thorax 2.62665 0.823681 2.13874
lowerneck -5.83201 0.660872 0.422511
upperneck 6.88416 0.765709 1.04512
head 3.23219 0.432218 0.301405
rclavicle -5.20878e-015 -1.90833e-014
rhumerus -23.0413 8.43703 -86.2976
rradius 57.4927
rwrist -17.9817
rhand -18.9541 -35.1578
rfingers 7.12502
rthumb 7.34948 -65.0102
lclavicle -5.20878e-015 -1.90833e-014
lhumerus -73.6847 29.2291 33.826
lradius 9.00804
lwrist -51.9013
lhand -5.25714 -10.9222
lfingers 7.12502
lthumb 20.5463 18.0106
rfemur -11.5254 -1.86451 14.1288
rtibia 53.9873
rfoot 22.286 17.7997
rtoes -12.3814
lfemur -50.0186 1.85144 -28.2579
ltibia 36.7694
lfoot -6.95762 -3.68779
ltoes -5.85399
304
root -0.0886525 15.9005 21.8755 18.526 -4.5637 3.2968
lowerback -15.6592 0.361927 -6.47406
upperback -5.58873 1.50509 -1.74808
thorax 2.70088 0.780099 2.07918
lowerneck -5.85465 0.674987 0.391133
upperneck 6.9699 0.780773 1.11673
head 3.26573 0.442091 0.331489
rclavicle 1.29365e-014 -4.77083e-015
rhumerus -24.1403 8.20383 -86.8634
rradius 57.4092
rwrist -18.634
rhand -20.2836 -40.182
rfingers 7.12502
rthumb 6.06604 -70.0752
lclavicle 1.29365e-014 -4.77083e-015
lhumerus -73.3124 29.8958 33.492
lradius 9.15711
lwrist -52.51
lhand -5.51484 -11.0804
lfingers 7.12502
lthumb 20.2987 17.8789
rfemur -12.9032 -1.84944 14.0667
rtibia 56.6925
rfoot 24.1558 16.015
rtoes -9.48233
lfemur -49.0979 2.0476 -28.3976
ltibia 37.2609
lfoot -7.79938 -4.01873
ltoes -3.39724
305
root -0.0751709 15.928 22.1141 18.4926 -4.34429 3.30976
lowerback -15.7897 0.253878 -6.31406
upperback -5.69505 1.34574 -1.79173
thorax 2.67664 0.702115 1.91714
lowerneck -5.23397 0.674253 0.258508
upperneck 6.97152 0.787699 1.22234
head 3.14616 0.444356 0.385626
rclavicle 6.86817e-016 4.77083e-015
rhumerus -25.5342 7.79518 -87.3792
rradius 56.9789
rwrist -19.0709
rhand -20.1824 -43.6165
rfingers 7.12502
rthumb 6.16374 -73.5069
lclavicle 6.86817e-016 4.77083e-015
lhumerus -73.0416 30.3891 33.1746
lradius 9.35508
lwrist -53.1153
lhand -5.59498 -11.2109
lfingers 7.12502
lthumb 20.2217 17.7565
rfemur -14.2543 -2.24844 14.0109
rtibia 59.1801
rfoot 24.5416 14.4559
rtoes -6.94434
lfemur -48.2667 2.15868 -28.6439
ltibia 37.5696
lfoot -9.13389 -4.21278
ltoes -4.62043
306
root -0.064669 15.9583 22.3299 18.3304 -4.23531 3.58939
lowerback -15.4982 0.170542 -6.47912
upperback -5.50137 1.25224 -1.91799
thorax 2.73236 0.650725 1.85807
lowerneck -5.95986 0.658582 0.151821
upperneck 7.22832 0.762871 1.29563
head 3.37423 0.435186 0.433134
rclavicle -1.47007e-014 2.14687e-014
rhumerus -26.2039 7.61758 -87.9214
rradius 55.7355
rwrist -21.132
rhand -15.3175 -45.3504
rfingers 7.12502
rthumb 10.8585 -75.0496
lclavicle -1.47007e-014 2.14687e-014
lhumerus -72.0812 31.5412 33.2281
lradius 9.37801
lwrist -53.7414
lhand -5.55482 -11.3791
lfingers 7.12502
lthumb 20.2603 17.5842
rfemur -15.7444 -2.57688 13.7174
rtibia 61.5991
rfoot 23.3178 13.3164
rtoes -7.21626
lfemur -47.2853 2.24123 -29.112
ltibia 37.7389
lfoot -10.3541 -4.20534
ltoes -6.05484
307
root -0.0592839 15.9918 22.5445 18.2206 -4.31561 3.91918
lowerback -15.3964 0.100062 -6.7671
upperback -5.40606 1.20325 -2.04424
thorax 2.77749 0.62399 1.87755
lowerneck -6.07304 0.704602 0.115332
upperneck 7.26018 0.823258 1.34067
head 3.40657 0.466391 0.45811
rclavicle -1.24582e-014 1.66979e-014
rhumerus -26.9914 6.92791 -88.2669
rradius 54.5764
rwrist -21.0312
rhand -6.24068 -49.2038
rfingers 7.12502
rthumb 19.601 -78.2356
lclavicle -1.24582e-014 1.66979e-014
lhumerus -71.2948 32.4958 33.1681
lradius 9.41601
lwrist -54.6446
lhand -5.45499 -11.9666
lfingers 7.12502
lthumb 20.3562 16.9865
rfemur -17.4628 -2.69695 13.3905
rtibia 63.9842
rfoot 20.9655 12.5564
rtoes -9.93645
lfemur -46.2632 2.38207 -29.5981
ltibia 37.7708
lfoot -11.0815 -4.10231
ltoes -6.09047
308
root -0.0556238 16.0181 22.7534 18.1042 -4.30144 4.18449
lowerback -15.3111 -0.0205105 -6.97198
upperback -5.38542 1.07205 -2.15174
thorax 2.76092 0.559345 1.85573
lowerneck -5.8784 0.778063 0.0643328
upperneck 7.34614 0.917884 1.4461
head 3.39741 0.515894 0.505309
rclavicle -2.01114e-014 1.11319e-014
rhumerus -27.7407 5.65413 -88.3652
rradius 53.2752
rwrist -18.5052
rhand -0.329805 -49.241
rfingers 7.12502
rthumb 25.2744 -77.5868
lclavicle -2.01114e-014 1.11319e-014
lhumerus -70.5705 33.4616 32.9926
lradius 9.35001
lwrist -55.8619
lhand -6.09019 -12.7154
lfingers 7.12502
lthumb 19.7457 16.3017
rfemur -19.1689 -2.82196 13.1981
rtibia 66.2944
rfoot 18.2229 11.2379
rtoes -11.0309
lfemur -45.1745 2.55216 -30.0186
ltibia 37.6638
lfoot -11.8297 -3.91334
ltoes -7.24352
309
root -0.048946 16.0344 22.9453 17.9535 -4.12498 4.25851
lowerback -14.901 -0.125404 -6.88601
upperback -5.3982 0.886084 -2.22476
thorax 2.54649 0.472806 1.69501
lowerneck -5.87231 0.782095 -0.0142529
upperneck 7.52396 0.920844 1.53736
head 3.45744 0.519544 0.550472
rclavicle 2.22452e-014 -3.97569e-015
rhumerus -28.6182 5.15529 -88.8312
rradius 52.2524
rwrist -18.7172
rhand -4.62428 -45.5164
rfingers 7.12502
rthumb 21.1544 -74.3823
lclavicle 2.22452e-014 -3.97569e-015
lhumerus -69.7745 34.5099 32.8586
lradius 9.30948
lwrist -57.1148
lhand -7.27331 -13.3384
lfingers 7.12502
lthumb 18.6079 15.7916
rfemur -20.9544 -3.02417 13.2919
rtibia 68.4763
rfoot 15.3598 9.6337
rtoes -9.23379
lfemur -44.1565 2.62871 -30.1545
ltibia 37.5073
lfoot -12.8615 -3.6363
ltoes -10.8124
310
root -0.0410449 16.0499 23.1341 17.9135 -3.98539 4.4874
lowerback -14.5897 -0.226599 -6.95981
upperback -5.40983 0.737249 -2.31961
thorax 2.37879 0.404041 1.60961
lowerneck -6.0249 0.767747 0.0377101
upperneck 7.71645 0.901499 1.44573
head 3.55496 0.508933 0.512948
rclavicle 4.60932e-015 -2.10712e-014
rhumerus -29.374 4.56494 -89.1667
rradius 51.3903
rwrist -18.5218
rhand -10.7927 -42.2256
rfingers 7.12502
rthumb 15.2201 -71.6457
lclavicle 4.60932e-015 -2.10712e-014
lhumerus -68.9993 35.4861 32.8439
lradius 9.64339
lwrist -57.9796
lhand -8.07974 -14.0416
lfingers 7.12502
lthumb 17.8321 15.1608
rfemur -22.9024 -3.2218 13.2437
rtibia 70.4522
rfoot 12.7159 8.81938
rtoes -7.52149
lfemur -43.3413 2.50228 -30.3754
ltibia 37.343
lfoot -13.8864 -3.22267
ltoes -14.8952
311
root -0.0406013 16.0717 23.3301 18.0164 -3.88339 4.70648
lowerback -14.6286 -0.391703 -7.20589
upperback -5.39453 0.558833 -2.33402
thorax 2.42493 0.315592 1.70343
lowerneck -6.27133 0.813788 0.147884
upperneck 8.05321 0.961843 1.28404
head 3.72199 0.537218 0.447596
rclavicle 5.08143e-015 -5.96354e-015
rhumerus -29.9683 3.97218 -89.4165
rradius 49.9364
rwrist -18.2214
rhand -16.4531 -36.5302
rfingers 7.12502
rthumb 9.763 -66.2839
lclavicle 5.08143e-015 -5.96354e-015
lhumerus -68.3108 36.5626 32.8187
lradius 10.129
lwrist -58.4536
lhand -8.45535 -14.6359
lfingers 7.12502
lthumb 17.4707 14.5991
rfemur -24.8972 -3.24371 13.2763
rtibia 72.1159
rfoot 10.1766 8.19089
rtoes -5.32273
lfemur -42.6578 2.35981 -30.5451
ltibia 37.2497
lfoot -14.5742 -3.05664
ltoes -15.1868
312
root -0.0347373 16.1015 23.5337 18.2507 -3.47306 4.44623
lowerback -14.8378 -0.539105 -6.8227
upperback -5.42547 0.325846 -2.2373
thorax 2.52807 0.19541 1.5531
lowerneck -6.27961 0.814826 0.0848974
upperneck 8.26882 0.965711 1.30057
head 3.79928 0.538658 0.466021
rclavicle -3.42282e-015 7.55382e-015
rhumerus -30.6806 3.4043 -89.6186
rradius 48.2655
rwrist -18.2655
rhand -19.5585 -32.19
rfingers 7.12502
rthumb 6.76603 -62.0619
lclavicle -3.42282e-015 7.55382e-015
lhumerus -64.7076 35.9168 37.6177
lradius 10.5252
lwrist -55.1908
lhand -9.05272 -14.6348
lfingers 7.12502
lthumb 16.8957 14.6502
rfemur -26.8723 -3.4496 13.8821
rtibia 73.3726
rfoot 7.2348 7.57552
rtoes -3.63945
lfemur -42.0018 2.21513 -30.228
ltibia 37.1892
lfoot -15.186 -3.10693
ltoes -14.1166
313
root -0.017535 16.1344 23.7339 18.4982 -2.80767 3.5891
lowerback -14.8755 -0.536631 -5.61029
upperback -5.59987 0.145303 -2.0168
thorax 2.39002 0.104373 1.07525
lowerneck -5.90274 0.753458 -0.0380276
upperneck 8.39068 0.8917 1.3444
head 3.76775 0.49937 0.496503
rclavicle 1.02498e-015 -2.14687e-014
rhumerus -31.5734 2.78581 -89.6693
rradius 46.524
rwrist -18.5929
rhand -19.8697 -30.8128
rfingers 7.12502
rthumb 6.46557 -60.6941
lclavicle 1.02498e-015 -2.14687e-014
lhumerus -61.4503 35.0269 41.7674
lradius 10.8407
lwrist -52.6705
lhand -9.84581 -14.9263
lfingers 7.12502
lthumb 16.1321 14.4223
rfemur -28.739 -3.74247 15.1274
rtibia 74.267
rfoot 4.50538 7.15705
rtoes -4.21414
lfemur -41.2899 2.05021 -29.289
ltibia 37.1098
lfoot -15.5827 -3.1052
ltoes -12.9164
314
root 0.000852688 16.1616 23.9316 18.3708 -1.90261 3.23601
lowerback -14.5944 -0.720688 -4.89306
upperback -5.65096 -0.222887 -1.87474
thorax 2.21051 -0.0793436 0.76225
lowerneck -5.56312 0.777118 -0.0115394
upperneck 8.61138 0.932269 1.2121
head 3.77883 0.514215 0.449204
rclavicle -5.13113e-015 1.27222e-014
rhumerus -32.3411 2.24808 -89.6784
rradius 44.6591
rwrist -18.8833
rhand -19.6352 -30.3046
rfingers 7.12502
rthumb 6.69199 -60.1789
lclavicle -5.13113e-015 1.27222e-014
lhumerus -58.5999 34.5012 45.0358
lradius 11.0186
lwrist -50.7241
lhand -10.7564 -15.2382
lfingers 7.12502
lthumb 15.2551 14.1793
rfemur -30.054 -4.30739 15.8776
rtibia 74.8915
rfoot 2.19977 6.49699
rtoes -5.117
lfemur -40.1402 1.47826 -28.7299
ltibia 36.9251
lfoot -15.2153 -3.59607
ltoes -6.44923
